<svg width="101" height="104" viewBox="0 0 101 104" fill="none" xmlns="http://www.w3.org/2000/svg">
<circle cx="50.5" cy="53.5" r="49.5" fill="#17344C" stroke="white" stroke-width="2"/>
<path d="M87.1846 16.2666H92.751V19.5186H87.1846V25.8613H83.7275V19.5186H78.1318V16.2666H83.7275V10.334H87.1846V16.2666Z" fill="white"/>
<path d="M37.1562 42.0625C37.1562 45.6015 38.5621 48.9955 41.0645 51.498C43.567 54.0004 46.961 55.4062 50.5 55.4062C54.039 55.4062 57.433 54.0004 59.9355 51.498C62.4379 48.9955 63.8438 45.6015 63.8438 42.0625C63.8438 38.5235 62.4379 35.1295 59.9355 32.627C57.433 30.1246 54.039 28.7188 50.5 28.7188C46.961 28.7188 43.567 30.1246 41.0645 32.627C38.5621 35.1295 37.1562 38.5235 37.1562 42.0625ZM69.5625 78.2812H29.5312C29.0257 78.2812 28.5408 78.0804 28.1833 77.7229C27.8258 77.3654 27.625 76.8806 27.625 76.375V70.6562C27.625 68.1284 28.6292 65.7041 30.4166 63.9166C32.2041 62.1292 34.6284 61.125 37.1562 61.125H63.8438C66.3716 61.125 68.7959 62.1292 70.5834 63.9166C72.3708 65.7041 73.375 68.1284 73.375 70.6562V76.375C73.375 76.8806 73.1742 77.3654 72.8167 77.7229C72.4592 78.0804 71.9743 78.2812 71.4688 78.2812H69.5625Z" fill="white"/>
</svg>
