<svg width="36" height="39" viewBox="0 0 36 39" fill="none" xmlns="http://www.w3.org/2000/svg">
<path d="M11.0961 17.5336C11.2865 17.5023 11.4687 17.433 11.6317 17.3298C11.7947 17.2266 11.9353 17.0917 12.0451 16.933C12.1548 16.7743 12.2315 16.5952 12.2706 16.4062C12.3097 16.2173 12.3103 16.0224 12.2725 15.8332C12.2346 15.644 12.1591 15.4644 12.0504 15.305C11.9416 15.1456 11.8019 15.0098 11.6396 14.9055C11.4772 14.8013 11.2955 14.7308 11.1054 14.6982C10.9152 14.6657 10.7204 14.6718 10.5326 14.7161C8.80189 15.0611 7.49472 16.2705 6.79897 17.8939C6.10897 19.502 6.00739 21.5088 6.54597 23.6612C6.64295 24.0261 6.87964 24.3383 7.20488 24.5301C7.53012 24.722 7.9178 24.7782 8.28413 24.6865C8.65045 24.5949 8.96601 24.3628 9.16259 24.0404C9.35918 23.718 9.42101 23.3311 9.33472 22.9635C8.91305 21.2826 9.05105 19.9352 9.44014 19.0267C9.82347 18.1354 10.433 17.6658 11.0961 17.5336ZM5.48797 2.55484C5.40619 3.91517 5.60529 5.27777 6.07286 6.55782C6.54044 7.83788 7.26648 9.008 8.2058 9.99534C6.37991 10.5189 4.74519 11.561 3.49998 12.9954C2.25478 14.4298 1.45261 16.1947 1.1908 18.076C0.561081 22.5906 1.48861 27.185 3.82047 31.1017L4.4913 32.2325C4.51668 32.2742 4.54419 32.3145 4.57372 32.3533L7.28772 36.0083C7.86271 36.7825 8.59952 37.422 9.44685 37.8823C10.2942 38.3427 11.2317 38.6128 12.194 38.6739C13.1564 38.7351 14.1205 38.5857 15.0193 38.2362C15.918 37.8868 16.7298 37.3456 17.3981 36.6504C17.4763 36.5692 17.5701 36.5045 17.6738 36.4603C17.7775 36.4162 17.8891 36.3934 18.0019 36.3934C18.1146 36.3934 18.2262 36.4162 18.33 36.4603C18.4337 36.5045 18.5275 36.5692 18.6056 36.6504C19.2739 37.3456 20.0857 37.8868 20.9845 38.2362C21.8832 38.5857 22.8474 38.7351 23.8097 38.6739C24.7721 38.6128 25.7096 38.3427 26.5569 37.8823C27.4043 37.422 28.1411 36.7825 28.7161 36.0083L31.4301 32.3533C31.459 32.3144 31.4858 32.2741 31.5106 32.2325L32.1833 31.1017C34.5158 27.1852 35.444 22.5908 34.8149 18.076C34.6293 16.7459 34.1727 15.468 33.4733 14.3214C32.7739 13.1749 31.8466 12.1841 30.7488 11.4105C29.651 10.6368 28.4061 10.0967 27.0911 9.82363C25.7761 9.55054 24.4191 9.55027 23.1041 9.82284L19.4605 10.578L19.4547 10.5799C19.5122 9.08492 19.7461 7.47493 20.2041 6.09684C20.76 4.43317 21.5305 3.43267 22.3891 3.07617C22.5683 3.00706 22.7318 2.90276 22.8699 2.76942C23.0081 2.63608 23.1182 2.47641 23.1936 2.29984C23.2691 2.12326 23.3084 1.93336 23.3092 1.74135C23.3101 1.54933 23.2724 1.35909 23.1985 1.18186C23.1246 1.00463 23.016 0.844002 22.879 0.709452C22.742 0.574903 22.5795 0.469163 22.4009 0.398474C22.2224 0.327786 22.0315 0.293582 21.8395 0.297881C21.6476 0.302181 21.4584 0.344897 21.2832 0.423507C19.265 1.26301 18.1207 3.25826 17.4767 5.18834L17.3886 5.46051C16.9286 4.57117 16.3267 3.73551 15.5811 2.98801C14.5873 1.99252 13.3933 1.21954 12.0782 0.720263C10.7631 0.220989 9.35691 0.00681429 7.9528 0.0919239C7.31113 0.128441 6.70526 0.399541 6.25043 0.853656C5.79561 1.30777 5.52357 1.91322 5.48605 2.55484H5.48797ZM8.34955 2.95159C9.31135 2.92383 10.2687 3.09315 11.1626 3.44914C12.0565 3.80513 12.8681 4.34025 13.5476 5.02159C14.2289 5.701 14.764 6.51264 15.12 7.40656C15.476 8.30049 15.6453 9.25779 15.6176 10.2196C15.2699 10.229 14.9221 10.213 14.5768 10.1717L13.3942 9.92634C12.2702 9.59101 11.2477 8.98029 10.4196 8.14959C9.73822 7.47018 9.20309 6.65854 8.8471 5.76462C8.49112 4.8707 8.32179 3.91339 8.34955 2.95159ZM12.3151 12.6384L12.7023 12.7189C13.1623 12.8493 13.63 12.9451 14.1015 13.0083L15.9606 13.3936C17.3072 13.6725 18.6966 13.6725 20.0431 13.3936L23.6886 12.6384C24.6184 12.4457 25.5778 12.4458 26.5074 12.6389C27.4371 12.8319 28.3173 13.2137 29.0935 13.7606C29.8696 14.3075 30.5253 15.0079 31.0198 15.8184C31.5144 16.629 31.8373 17.5324 31.9686 18.4728C32.5075 22.3407 31.7117 26.2767 29.7127 29.6316L29.0783 30.6973L26.4084 34.2948C26.0826 34.7338 25.665 35.0964 25.1847 35.3574C24.7044 35.6184 24.173 35.7716 23.6274 35.8063C23.0819 35.8409 22.5354 35.7562 22.0259 35.5581C21.5165 35.36 21.0563 35.0532 20.6776 34.659C20.3312 34.2989 19.9156 34.0124 19.4559 33.8167C18.9961 33.621 18.5016 33.5202 18.0019 33.5202C17.5022 33.5202 17.0077 33.621 16.5479 33.8167C16.0882 34.0124 15.6726 34.2989 15.3262 34.659C14.9475 35.0532 14.4873 35.36 13.9779 35.5581C13.4684 35.7562 12.9219 35.8409 12.3763 35.8063C11.8308 35.7716 11.2994 35.6184 10.8191 35.3574C10.3388 35.0964 9.92122 34.7338 9.59539 34.2948L6.92547 30.6973L6.28914 29.6316C4.2916 26.2762 3.49724 22.3402 4.03705 18.4728C4.1684 17.5326 4.49127 16.6294 4.98571 15.819C5.48014 15.0086 6.13561 14.3083 6.91156 13.7614C7.68752 13.2145 8.56744 12.8327 9.49689 12.6395C10.4263 12.4464 11.3855 12.446 12.3151 12.6384Z" fill="white"/>
</svg>
