<svg width="56" height="32" viewBox="0 0 56 32" fill="none" xmlns="http://www.w3.org/2000/svg">
<path fill-rule="evenodd" clip-rule="evenodd" d="M37.625 2.25C37.625 1.88533 37.7699 1.53559 38.0277 1.27773C38.2856 1.01987 38.6353 0.875 39 0.875H44.5C44.8647 0.875 45.2144 1.01987 45.4723 1.27773C45.7301 1.53559 45.875 1.88533 45.875 2.25V5H50C50.3647 5 50.7144 5.14486 50.9723 5.40273C51.2301 5.66059 51.375 6.01033 51.375 6.375V14.625H55.5V17.375H51.375V25.625C51.375 25.9897 51.2301 26.3394 50.9723 26.5973C50.7144 26.8551 50.3647 27 50 27H45.875V29.75C45.875 30.1147 45.7301 30.4644 45.4723 30.7223C45.2144 30.9801 44.8647 31.125 44.5 31.125H39C38.6353 31.125 38.2856 30.9801 38.0277 30.7223C37.7699 30.4644 37.625 30.1147 37.625 29.75V17.375H18.375V29.75C18.375 30.1147 18.2301 30.4644 17.9723 30.7223C17.7144 30.9801 17.3647 31.125 17 31.125H11.5C11.1353 31.125 10.7856 30.9801 10.5277 30.7223C10.2699 30.4644 10.125 30.1147 10.125 29.75V27H6C5.63533 27 5.28559 26.8551 5.02773 26.5973C4.76987 26.3394 4.625 25.9897 4.625 25.625V17.375H0.5V14.625H4.625V6.375C4.625 6.01033 4.76987 5.66059 5.02773 5.40273C5.28559 5.14486 5.63533 5 6 5H10.125V2.25C10.125 1.88533 10.2699 1.53559 10.5277 1.27773C10.7856 1.01987 11.1353 0.875 11.5 0.875H17C17.3647 0.875 17.7144 1.01987 17.9723 1.27773C18.2301 1.53559 18.375 1.88533 18.375 2.25V14.625H37.625V2.25ZM12.875 28.375H15.625V3.625H12.875V28.375ZM10.125 7.75H7.375V24.25H10.125V7.75ZM45.875 24.25V7.75H48.625V24.25H45.875ZM43.125 3.625V28.375H40.375V3.625H43.125Z" fill="white"/>
</svg>
