<svg width="24" height="24" viewBox="0 0 24 24" fill="none" xmlns="http://www.w3.org/2000/svg">
<g clip-path="url(#clip0_45_282)">
<path d="M14.8805 6.16571C14.9095 6.27308 14.9595 6.37366 15.0274 6.46171C15.0954 6.54976 15.1801 6.62355 15.2766 6.67885C15.3731 6.73416 15.4796 6.7699 15.5899 6.78403C15.7002 6.79816 15.8122 6.79041 15.9196 6.76121L18.7651 5.98984C18.8724 5.96088 18.9729 5.91107 19.0609 5.84324C19.1489 5.77541 19.2227 5.6909 19.2781 5.59453C19.3334 5.49816 19.3692 5.39183 19.3834 5.28162C19.3977 5.1714 19.39 5.05947 19.361 4.95221L18.8446 3.04271C18.7858 2.82582 18.6432 2.64116 18.4483 2.52934C18.2534 2.41753 18.022 2.38772 17.8051 2.44646L14.9596 3.21784C14.7429 3.2769 14.5586 3.41946 14.4469 3.61424C14.3352 3.80903 14.3053 4.04016 14.3637 4.25696L14.8805 6.16571Z" fill="#405866"/>
<path d="M9.15454 6.21772C9.09539 6.43408 8.95289 6.61818 8.75825 6.72966C8.56361 6.84115 8.33272 6.87092 8.11616 6.81247L5.27104 6.04109C5.16368 6.01222 5.06307 5.96246 4.97496 5.89467C4.88685 5.82687 4.81298 5.74237 4.75756 5.646C4.70215 5.54962 4.66628 5.44326 4.65201 5.33301C4.63774 5.22276 4.64536 5.11078 4.67441 5.00347L5.19116 3.09434C5.25005 2.87753 5.39264 2.69299 5.58758 2.58131C5.78253 2.46964 6.01385 2.43997 6.23066 2.49884L9.07541 3.27022C9.18277 3.29922 9.28337 3.34908 9.37146 3.41696C9.45954 3.48484 9.5334 3.5694 9.5888 3.66583C9.64421 3.76225 9.68007 3.86864 9.69435 3.97893C9.70863 4.08922 9.70105 4.20124 9.67204 4.30859L9.15454 6.21772Z" fill="#405866"/>
<path d="M11.4155 4.00253C11.6221 4.56203 11.8764 5.30378 12.0155 6.07853C12.1633 6.91403 11.8516 7.37378 11.2655 7.88753C11.0938 8.03641 11.0353 8.25653 11.111 8.46316C11.1909 8.67428 11.3975 8.82203 11.6143 8.82203C11.7391 8.82203 11.8588 8.77553 11.9604 8.68628C12.4603 8.25091 12.8338 7.84441 13.031 7.27291C13.2658 6.59753 13.0741 5.80928 12.9324 5.23366C12.7741 4.59166 12.5439 3.96353 12.3196 3.35491L12.2574 3.18803C11.9236 2.28128 11.8441 1.59841 12.4153 0.788034C12.5311 0.621159 12.548 0.427284 12.4599 0.255159C12.2881 -0.0752164 11.7658 -0.132966 11.54 0.188034C11.2138 0.650034 10.8823 1.23091 10.8954 2.02816C10.9074 2.64803 11.126 3.22816 11.3375 3.78991L11.4174 4.00178" fill="#354A54"/>
<path d="M11.5284 8.48295C11.4515 8.27745 11.5108 8.05695 11.6818 7.9077C12.269 7.3947 12.581 6.9342 12.4318 6.09945C12.2941 5.3247 12.0391 4.58445 11.8329 4.02345L11.753 3.81083C11.543 3.24945 11.3233 2.66933 11.312 2.04945C11.2978 1.2507 11.6293 0.670953 11.9563 0.209328C12.008 0.133953 12.077 0.0810778 12.1524 0.0454528C11.9281 -0.0527972 11.6386 -0.00967216 11.4853 0.209328C11.1586 0.670578 10.8286 1.2507 10.8406 2.04945C10.8534 2.66933 11.0701 3.24945 11.2828 3.81083L11.3611 4.02345C11.5693 4.58295 11.8239 5.3247 11.9619 6.09945C12.1096 6.9342 11.798 7.3947 11.2119 7.9077C11.0394 8.05695 10.9809 8.27745 11.0585 8.48295C11.1365 8.69483 11.3431 8.84295 11.5595 8.84295C11.6405 8.84295 11.7196 8.82008 11.7943 8.78145C11.6715 8.71848 11.5766 8.61207 11.528 8.48295" fill="#405866"/>
<path d="M2.2411 6.18023C5.3851 1.01273 10.1236 4.60748 10.1236 4.60748C10.4307 4.83923 10.9974 5.03048 11.381 5.03198L12.6515 5.03273C13.0366 5.03273 13.6036 4.84223 13.91 4.60898C13.91 4.60898 18.6481 1.01498 21.7925 6.18098C24.9391 11.3466 23.6712 16.972 23.6712 16.972C23.4481 18.3497 22.7169 19.2689 21.3357 19.1522C19.9587 19.0371 16.9704 15.4442 16.9704 15.4442C16.7244 15.1476 16.2072 14.9054 15.8214 14.9054L8.2141 14.9035C7.83048 14.9035 7.31373 15.1457 7.06698 15.4409C7.06698 15.4409 4.07635 19.0371 2.69935 19.1519C1.3186 19.2674 0.58623 18.3464 0.366105 16.9701C0.366105 16.9709 -0.90327 11.3455 2.2411 6.18023Z" fill="#354A54"/>
<path d="M3.92719 16.9502C3.92719 16.9502 2.65781 11.3252 5.80181 6.15996C6.58856 4.86771 7.47469 4.12296 8.36194 3.73333C6.69619 3.15246 4.14694 3.00246 2.20594 6.19146C-0.936935 11.3586 0.33094 16.9825 0.33094 16.9825C0.551815 18.3602 1.28531 19.2797 2.66419 19.1631C3.10969 19.1275 3.72356 18.7247 4.35056 18.2001C4.14356 17.8551 4.00406 17.4313 3.92756 16.9502" fill="#405866"/>
<path d="M14.9428 5.01007H16.2125C16.5965 5.01157 17.1632 4.82032 17.4699 4.58819C17.4699 4.58819 18.1265 4.09057 19.1128 3.73132C16.484 2.6427 13.8748 4.62082 13.8748 4.62082C13.8527 4.63694 13.8302 4.65344 13.8062 4.66882C14.126 4.86269 14.6042 5.00969 14.9424 5.00969" fill="#405866"/>
<path d="M20.5297 15.4238C20.2848 15.1272 19.7677 14.8845 19.3826 14.8845L11.7753 14.8838C11.6853 14.8853 11.5958 14.8968 11.5083 14.9179H15.7871C16.1714 14.9179 16.6897 15.1602 16.9349 15.4568C16.9349 15.4568 19.9241 19.0512 21.3011 19.1663C22.2202 19.2432 22.8509 18.861 23.2361 18.1902C21.9168 17.0903 20.5297 15.4238 20.5297 15.4238" fill="#405866"/>
<path d="M8.90935 8.80061C8.9005 8.68684 8.89687 8.57272 8.89848 8.45861C8.89787 8.43999 8.90241 8.42156 8.9116 8.40536C8.86983 8.32367 8.81723 8.24799 8.75523 8.18036C8.74195 8.16717 8.73226 8.15081 8.72707 8.13283C8.72189 8.11485 8.72138 8.09584 8.7256 8.07761H7.1476V6.49023H5.44286V8.07761H4.07373V9.80861H5.44286V11.093H7.1476V9.80861H8.81635C8.8261 9.49398 8.9026 9.17936 8.94048 8.86586C8.92237 8.84872 8.91128 8.82547 8.90935 8.80061Z" fill="#A2ABAF"/>
<path d="M7.15497 6.44753C7.15497 6.20266 6.95697 6.00391 6.71285 6.00391H5.88747C5.64335 6.00391 5.44385 6.20266 5.44385 6.44753C5.44385 6.69166 5.64297 6.89041 5.88747 6.89041H6.71285C6.77096 6.89036 6.82849 6.87886 6.88216 6.85658C6.93582 6.8343 6.98458 6.80166 7.02563 6.76054C7.06669 6.71941 7.09924 6.6706 7.12143 6.6169C7.14362 6.56319 7.15502 6.50564 7.15497 6.44753Z" fill="#A2ABAF"/>
<path d="M4.07373 9.78373V8.07936H5.42973V6.85498H7.16073V8.07936H8.74886V9.78373H7.16073V11.0947H5.42973V9.78373H4.07373Z" fill="#A2ABAF"/>
<path d="M8.792 9.78713C9.0365 9.78713 9.23487 9.58876 9.23487 9.34388V8.51926C9.23017 8.40495 9.18145 8.2969 9.09891 8.21768C9.01637 8.13847 8.9064 8.09424 8.792 8.09424C8.6776 8.09424 8.56762 8.13847 8.48508 8.21768C8.40254 8.2969 8.35383 8.40495 8.34912 8.51926V9.34388C8.34902 9.40209 8.36041 9.45974 8.38263 9.51354C8.40484 9.56734 8.43745 9.61622 8.47859 9.6574C8.51973 9.69857 8.56859 9.73122 8.62237 9.75349C8.67615 9.77575 8.73379 9.78718 8.792 9.78713Z" fill="#A2ABAF"/>
<path d="M3.68028 9.08595C3.6919 9.20032 3.6919 9.3132 3.6919 9.42757C3.69246 9.44599 3.68777 9.4642 3.6784 9.48007C3.7189 9.5592 3.77028 9.63495 3.83365 9.70582C3.86328 9.73807 3.87265 9.7752 3.86403 9.80782H5.44165V11.3956H7.14753V9.80782H8.5159V8.0772H7.14753V6.79395H5.44165V8.0772H3.7729C3.76428 8.3922 3.6874 8.70645 3.6499 9.01957C3.66764 9.03735 3.67842 9.0609 3.68028 9.08595Z" fill="#A2ABAF"/>
<path d="M5.43506 11.4384C5.43506 11.6832 5.63456 11.8824 5.88056 11.8824H6.70406C6.94856 11.8824 7.14768 11.6832 7.14768 11.4384C7.14768 11.195 6.94856 10.9951 6.70406 10.9951H5.88056C5.63456 10.9951 5.43506 11.195 5.43506 11.4384Z" fill="#A2ABAF"/>
<path d="M8.51595 8.10307V9.80745H7.15995V11.0326H5.4282V9.80745H3.84082V8.10307H5.4282V6.79395H7.15995V8.10307H8.51595Z" fill="#A2ABAF"/>
<path d="M3.79797 8.09815C3.73983 8.09815 3.68226 8.1096 3.62854 8.13186C3.57483 8.15413 3.52604 8.18675 3.48494 8.22788C3.44385 8.26901 3.41126 8.31784 3.38904 8.37157C3.36683 8.4253 3.35542 8.48288 3.35547 8.54102V9.36527C3.35547 9.48273 3.40213 9.59538 3.48518 9.67843C3.56824 9.76149 3.68089 9.80815 3.79834 9.80815C3.9158 9.80815 4.02845 9.76149 4.1115 9.67843C4.19456 9.59538 4.24122 9.48273 4.24122 9.36527V8.54102C4.24127 8.48282 4.22983 8.42517 4.20757 8.37139C4.18531 8.31762 4.15266 8.26876 4.11148 8.22762C4.07031 8.18648 4.02142 8.15387 3.96762 8.13165C3.91383 8.10943 3.85617 8.09805 3.79797 8.09815Z" fill="#A2ABAF"/>
<path d="M8.69992 8.64774C8.69009 8.53414 8.68571 8.42014 8.68679 8.30612C8.68679 8.28549 8.69279 8.26824 8.69992 8.25362C8.65855 8.17187 8.60619 8.09617 8.54429 8.02862C8.5315 8.01519 8.52212 7.99887 8.51697 7.98105C8.51181 7.96323 8.51102 7.94443 8.51467 7.92624H6.93854V6.33887H5.23379V7.92624H3.86279V9.65799H5.23379V10.9405H6.93854V9.65799H8.60579C8.61554 9.34187 8.69279 9.02724 8.72992 8.71412C8.71206 8.69646 8.70137 8.67281 8.69992 8.64774Z" fill="#CBD5DC"/>
<path d="M6.94242 6.2959C6.94242 6.05178 6.74367 5.85303 6.49955 5.85303H5.67455C5.61644 5.85308 5.55891 5.86457 5.50524 5.88685C5.45157 5.90914 5.40282 5.94177 5.36176 5.9829C5.32071 6.02402 5.28815 6.07283 5.26596 6.12654C5.24377 6.18024 5.23237 6.23779 5.23242 6.2959C5.23232 6.35404 5.24368 6.41163 5.26585 6.46538C5.28802 6.51913 5.32057 6.56798 5.36163 6.60915C5.40269 6.65031 5.45146 6.68298 5.50515 6.70529C5.55884 6.7276 5.61641 6.7391 5.67455 6.73915H6.49955C6.74367 6.73915 6.94242 6.54078 6.94242 6.2959Z" fill="#CBD5DC"/>
<path d="M3.86133 9.63236V7.92724H5.21845V6.70361H6.94908V7.92724H8.5372V9.63236H6.94908V10.9415H5.21845V9.63236H3.86133Z" fill="#CBD5DC"/>
<path d="M8.5791 9.63789C8.82585 9.63789 9.02348 9.43876 9.02348 9.19389V8.36964C9.02353 8.31134 9.01206 8.2536 8.98973 8.19975C8.96739 8.1459 8.93464 8.09699 8.89335 8.05583C8.85205 8.01468 8.80303 7.98209 8.7491 7.95994C8.69518 7.93779 8.6374 7.92651 8.5791 7.92676C8.33573 7.92676 8.13623 8.12439 8.13623 8.36964V9.19389C8.13623 9.43876 8.33573 9.63789 8.5791 9.63789Z" fill="#CBD5DC"/>
<path d="M3.46945 8.93495C3.4792 9.04858 3.47995 9.16333 3.47995 9.2762C3.47977 9.29477 3.47594 9.31311 3.4687 9.3302C3.50808 9.40933 3.5587 9.48395 3.62208 9.55483C3.65208 9.58708 3.6607 9.6242 3.65245 9.65758H5.23008V11.2442H6.93483V9.65758H8.30395V7.92658H6.93483V6.64258H5.23008V7.92658H3.5632C3.55383 8.24158 3.47508 8.5562 3.43945 8.86895C3.45653 8.88699 3.46709 8.91022 3.46945 8.93495Z" fill="#CBD5DC"/>
<path d="M5.2251 11.2876C5.22481 11.3459 5.23605 11.4037 5.25817 11.4577C5.2803 11.5117 5.31288 11.5607 5.35404 11.6021C5.3952 11.6434 5.44413 11.6762 5.498 11.6985C5.55188 11.7209 5.60965 11.7324 5.66798 11.7323H6.49223C6.6075 11.729 6.71693 11.6808 6.79729 11.5981C6.87764 11.5154 6.92259 11.4046 6.92259 11.2893C6.92259 11.1739 6.87764 11.0631 6.79729 10.9804C6.71693 10.8977 6.6075 10.8495 6.49223 10.8462H5.66798C5.42273 10.8462 5.2251 11.0438 5.2251 11.2876Z" fill="#CBD5DC"/>
<path d="M8.30264 7.95001V9.65514H6.94777V10.8788H5.21602V9.65514H3.62939V7.95001H5.21602V6.64014H6.94777V7.95001H8.30264Z" fill="#CBD5DC"/>
<path d="M3.58658 7.94629C3.34245 7.94629 3.14258 8.14466 3.14258 8.39066V9.21416C3.14593 9.32954 3.19412 9.43906 3.27692 9.51949C3.35971 9.59991 3.47059 9.64489 3.58602 9.64489C3.70144 9.64489 3.81232 9.59991 3.89511 9.51949C3.97791 9.43906 4.0261 9.32954 4.02945 9.21416V8.39066C4.02945 8.14504 3.83145 7.94629 3.58658 7.94629Z" fill="#CBD5DC"/>
<path d="M20.4675 6.78385C20.4675 7.05621 20.3593 7.31741 20.1667 7.51C19.9741 7.70259 19.7129 7.81079 19.4405 7.81079C19.1682 7.81079 18.9069 7.70259 18.7144 7.51C18.5218 7.31741 18.4136 7.05621 18.4136 6.78385C18.4138 6.5114 18.5221 6.25017 18.7147 6.05751C18.9074 5.86486 19.1686 5.75655 19.4411 5.75635C19.576 5.75635 19.7095 5.78293 19.8341 5.83458C19.9587 5.88623 20.0719 5.96194 20.1672 6.05736C20.2626 6.15279 20.3381 6.26607 20.3896 6.39073C20.4412 6.51538 20.4676 6.64897 20.4675 6.78385Z" fill="#FAAA33"/>
<path d="M16.6426 8.60653C17.2103 8.60653 17.6705 8.14634 17.6705 7.57866C17.6705 7.01098 17.2103 6.55078 16.6426 6.55078C16.0749 6.55078 15.6147 7.01098 15.6147 7.57866C15.6147 8.14634 16.0749 8.60653 16.6426 8.60653Z" fill="#FAAA33"/>
<path d="M21.4953 9.49441C21.4949 9.76712 21.3862 10.0285 21.1932 10.2212C21.0002 10.4138 20.7386 10.522 20.4659 10.5219C20.1968 10.5168 19.9405 10.4063 19.752 10.2142C19.5636 10.0221 19.458 9.76371 19.458 9.4946C19.458 9.22549 19.5636 8.96712 19.752 8.77502C19.9405 8.58292 20.1968 8.47243 20.4659 8.46729C20.6009 8.46714 20.7346 8.49359 20.8595 8.54513C20.9843 8.59666 21.0977 8.67228 21.1933 8.76766C21.2889 8.86303 21.3647 8.97631 21.4166 9.101C21.4684 9.2257 21.4951 9.35938 21.4953 9.49441Z" fill="#FAAA33"/>
<path d="M18.6963 10.2877C18.6891 10.5553 18.5777 10.8095 18.3859 10.9962C18.1941 11.1829 17.9369 11.2874 17.6692 11.2874C17.4015 11.2874 17.1444 11.1829 16.9525 10.9962C16.7607 10.8095 16.6493 10.5553 16.6421 10.2877C16.6419 10.1526 16.6684 10.0189 16.7199 9.8941C16.7715 9.76929 16.8471 9.65585 16.9425 9.56026C17.0378 9.46468 17.1511 9.38881 17.2758 9.337C17.4005 9.28519 17.5342 9.25845 17.6692 9.2583C17.8042 9.25845 17.9379 9.28519 18.0626 9.337C18.1873 9.38881 18.3006 9.46468 18.396 9.56026C18.4913 9.65585 18.567 9.76929 18.6185 9.8941C18.67 10.0189 18.6965 10.1526 18.6963 10.2877Z" fill="#FAAA33"/>
</g>
<defs>
<clipPath id="clip0_45_282">
<rect width="24" height="24" fill="white"/>
</clipPath>
</defs>
</svg>
