<svg width="18" height="18" viewBox="0 0 18 18" fill="none" xmlns="http://www.w3.org/2000/svg">
<path fill-rule="evenodd" clip-rule="evenodd" d="M17.7648 8.49472L9.02873 0.0966797L0.23625 8.49377C0.145948 8.58309 0.0958743 8.70282 0.0968148 8.82718C0.0977552 8.95153 0.149634 9.07056 0.241278 9.15861C0.332921 9.24667 0.456995 9.29671 0.586775 9.29797C0.716556 9.29922 0.841657 9.25158 0.935134 9.16531L2.07057 8.08117V16.6547C2.07057 16.7805 2.12272 16.9011 2.21554 16.99C2.30837 17.079 2.43426 17.1289 2.56553 17.1289H7.02018C7.15145 17.1289 7.27734 17.079 7.37017 16.99C7.46299 16.9011 7.51514 16.7805 7.51514 16.6547V12.5093C7.51514 12.3835 7.56728 12.2628 7.66011 12.1739C7.75293 12.085 7.87883 12.035 8.0101 12.035H9.98994C10.1212 12.035 10.2471 12.085 10.3399 12.1739C10.4328 12.2628 10.4849 12.3835 10.4849 12.5093V16.6542C10.4849 16.78 10.537 16.9006 10.6299 16.9896C10.7227 17.0785 10.8486 17.1285 10.9799 17.1285H15.4345C15.5658 17.1285 15.6917 17.0785 15.7845 16.9896C15.8773 16.9006 15.9295 16.78 15.9295 16.6542V8.07453L17.0639 9.16484C17.1571 9.25136 17.2821 9.29934 17.4119 9.29844C17.5417 9.29754 17.6659 9.24783 17.7578 9.16002C17.8497 9.07221 17.9019 8.95333 17.9032 8.82898C17.9045 8.70463 17.8548 8.58429 17.7648 8.49472ZM14.9395 7.12224L9.02625 1.43786L3.06049 7.13552V16.1804H6.52522V12.5093C6.52522 12.1319 6.68166 11.77 6.96013 11.5032C7.2386 11.2364 7.61628 11.0865 8.0101 11.0865H9.98994C10.3838 11.0865 10.7614 11.2364 11.0399 11.5032C11.3184 11.77 11.4748 12.1319 11.4748 12.5093V16.18H14.9395V7.12224Z" fill="#FF5467"/>
</svg>
