<svg width="21" height="29" viewBox="0 0 21 29" fill="none" xmlns="http://www.w3.org/2000/svg">
<path d="M19.25 12.75H17.5V7.5C17.5 3.65 14.35 0.5 10.5 0.5C6.65 0.5 3.5 3.65 3.5 7.5V12.75H1.75C0.875 12.75 0 13.625 0 14.5V26.75C0 27.625 0.875 28.5 1.75 28.5H19.25C20.125 28.5 21 27.625 21 26.75V14.5C21 13.625 20.125 12.75 19.25 12.75ZM12.25 25H8.75L9.45 21.15C8.575 20.8 7.875 19.75 7.875 18.875C7.875 17.475 9.1 16.25 10.5 16.25C11.9 16.25 13.125 17.475 13.125 18.875C13.125 19.925 12.6 20.8 11.55 21.15L12.25 25ZM14 12.75H7V7.5C7 5.575 8.575 4 10.5 4C12.425 4 14 5.575 14 7.5V12.75Z" fill="white"/>
</svg>
