<svg width="24" height="15" viewBox="0 0 24 15" fill="none" xmlns="http://www.w3.org/2000/svg">
<path d="M8.73912 12.0583C8.63412 12.0583 8.54225 11.9795 8.52162 11.867C7.58412 6.39577 5.771 3.05265 5.75225 3.02077C5.69225 2.91015 5.72787 2.76765 5.83287 2.7039C5.93787 2.64015 6.07287 2.67765 6.13475 2.78827C6.1535 2.82202 8.00412 6.22702 8.95662 11.7845C8.97725 11.9101 8.8985 12.0301 8.7785 12.0526C8.76537 12.0583 8.75225 12.0583 8.73912 12.0583Z" fill="#3BC4EE"/>
<path d="M11.1297 12.0583C11.0247 12.0583 10.9329 11.9795 10.9122 11.867C9.97475 6.39577 8.16162 3.05265 8.14287 3.02077C8.08287 2.91015 8.1185 2.76765 8.2235 2.7039C8.3285 2.64015 8.4635 2.67765 8.52537 2.78827C8.54412 2.82202 10.3947 6.22702 11.3472 11.7845C11.3679 11.9101 11.2891 12.0301 11.1691 12.0526C11.156 12.0583 11.1429 12.0583 11.1297 12.0583Z" fill="#3BC4EE"/>
<path d="M13.3216 12.0583C13.2166 12.0583 13.1229 11.9795 13.1041 11.867C12.1666 6.39577 10.3535 3.05265 10.3348 3.02077C10.2748 2.91015 10.3104 2.76765 10.4154 2.7039C10.5204 2.64015 10.6554 2.67765 10.7173 2.78827C10.736 2.82202 12.5866 6.22702 13.5373 11.7845C13.5598 11.9101 13.4791 12.0301 13.3591 12.0526C13.3479 12.0583 13.3329 12.0583 13.3216 12.0583Z" fill="#3BC4EE"/>
<path d="M4.24324 12.0579C4.23012 12.0579 4.21699 12.056 4.20387 12.0541C4.08387 12.0316 4.00324 11.9116 4.02574 11.786C4.97824 6.22849 6.82887 2.82349 6.84762 2.78974C6.90762 2.67911 7.04262 2.64161 7.14949 2.70536C7.25449 2.76911 7.29012 2.91161 7.23012 3.02224C7.21137 3.05411 5.39824 6.39724 4.46074 11.8685C4.44199 11.9791 4.34824 12.0579 4.24324 12.0579Z" fill="#3BC4EE"/>
<path d="M6.45369 12.0581C6.44056 12.0581 6.42744 12.0562 6.41431 12.0544C6.29431 12.0319 6.21556 11.9119 6.23619 11.7862C7.18869 6.22874 9.03931 2.82374 9.05806 2.78999C9.07173 2.76402 9.09056 2.74112 9.11338 2.72268C9.13621 2.70425 9.16256 2.69066 9.19082 2.68276C9.21908 2.67486 9.24866 2.67282 9.27774 2.67675C9.30682 2.68068 9.33479 2.6905 9.35994 2.70561C9.46494 2.76936 9.50244 2.91186 9.44056 3.02249C9.42181 3.05436 7.60869 6.39749 6.67119 11.8687C6.65056 11.9794 6.55681 12.0581 6.45369 12.0581Z" fill="#3BC4EE"/>
<path d="M8.82381 12.0581C8.81068 12.0581 8.79756 12.0562 8.78443 12.0544C8.66443 12.0319 8.58568 11.9119 8.60631 11.7862C9.55881 6.22874 11.4094 2.82374 11.4282 2.78999C11.4418 2.76402 11.4607 2.74112 11.4835 2.72268C11.5063 2.70425 11.5327 2.69066 11.5609 2.68276C11.5892 2.67486 11.6188 2.67282 11.6479 2.67675C11.6769 2.68068 11.7049 2.6905 11.7301 2.70561C11.8351 2.76936 11.8726 2.91186 11.8107 3.02249C11.7919 3.05436 9.97881 6.39749 9.04131 11.8687C9.02256 11.9794 8.92881 12.0581 8.82381 12.0581Z" fill="#3BC4EE"/>
<path d="M11.1319 12.0579C11.1188 12.0579 11.1057 12.056 11.0925 12.0541C10.9725 12.0316 10.8919 11.9116 10.9144 11.786C11.8669 6.23037 13.6275 2.82725 13.6463 2.7935C13.7044 2.681 13.8394 2.63975 13.9463 2.70162C14.0532 2.7635 14.0925 2.90412 14.0344 3.01662C14.0175 3.05037 12.2888 6.3935 11.3513 11.8685C11.3288 11.9791 11.235 12.0579 11.1319 12.0579Z" fill="#3BC4EE"/>
<path d="M13.3219 12.0579C13.3087 12.0579 13.2956 12.056 13.2825 12.0541C13.1625 12.0316 13.0819 11.9116 13.1044 11.786C14.0569 6.22849 15.9075 2.82349 15.9262 2.78974C15.9881 2.67911 16.1231 2.64161 16.2281 2.70536C16.3331 2.76911 16.3687 2.91161 16.3087 3.02224C16.29 3.05411 14.4769 6.39724 13.5394 11.8685C13.5187 11.9791 13.425 12.0579 13.3219 12.0579Z" fill="#3BC4EE"/>
<path d="M15.5963 12.0579C15.5831 12.0579 15.57 12.056 15.5569 12.0541C15.4369 12.0316 15.3563 11.9116 15.3788 11.786C16.3313 6.22849 18.1819 2.82349 18.2006 2.78974C18.2625 2.67911 18.3956 2.64161 18.5025 2.70536C18.6075 2.76911 18.6431 2.91161 18.5831 3.02224C18.5644 3.05411 16.7513 6.39724 15.8138 11.8685C15.7931 11.9791 15.6994 12.0579 15.5963 12.0579Z" fill="#3BC4EE"/>
<path d="M17.8707 12.0582C17.8576 12.0582 17.8444 12.0563 17.8313 12.0544C17.7113 12.0319 17.6307 11.9119 17.6532 11.7863C18.3076 7.96694 19.3819 5.17694 19.9651 3.85506C20.0176 3.73881 20.1469 3.68819 20.2576 3.74256C20.3682 3.79694 20.4169 3.93381 20.3663 4.05006C19.7926 5.35319 18.7332 8.10006 18.0882 11.8688C18.0676 11.9794 17.9757 12.0582 17.8707 12.0582Z" fill="#3BC4EE"/>
<path d="M15.5941 12.0583C15.4891 12.0583 15.3954 11.9795 15.3766 11.867C14.4391 6.39577 12.626 3.05265 12.6072 3.02077C12.5472 2.91015 12.5829 2.76765 12.6879 2.7039C12.7929 2.64015 12.9279 2.67765 12.9897 2.78827C13.0085 2.82202 14.8591 6.22702 15.8116 11.7845C15.8341 11.9101 15.7535 12.0301 15.6335 12.0526C15.6203 12.0583 15.6072 12.0583 15.5941 12.0583Z" fill="#3BC4EE"/>
<path d="M17.8705 12.0583C17.7655 12.0583 17.6717 11.9795 17.653 11.867C16.7155 6.39577 14.9023 3.05265 14.8836 3.02077C14.8236 2.91015 14.8592 2.76765 14.9642 2.7039C15.0692 2.64015 15.2042 2.67765 15.2661 2.78827C15.2848 2.82202 17.1355 6.22702 18.088 11.7845C18.1105 11.9101 18.0298 12.0301 17.9098 12.0526C17.8967 12.0583 17.8836 12.0583 17.8705 12.0583Z" fill="#3BC4EE"/>
<path d="M20.0661 12.0583C19.9611 12.0583 19.8674 11.9795 19.8486 11.867C18.9111 6.39577 17.098 3.05265 17.0793 3.02077C17.0174 2.91015 17.0549 2.76765 17.1599 2.7039C17.2649 2.64015 17.3999 2.67765 17.4618 2.78827C17.4805 2.82202 19.3311 6.22702 20.2836 11.7845C20.3061 11.9101 20.2255 12.0301 20.1055 12.0526C20.0924 12.0583 20.0793 12.0583 20.0661 12.0583Z" fill="#3BC4EE"/>
<path d="M6.45201 12.0583C6.34701 12.0583 6.25514 11.9795 6.23451 11.867C5.29701 6.39577 3.48389 3.05265 3.46514 3.02077C3.40514 2.91015 3.44076 2.76765 3.54576 2.7039C3.65076 2.64015 3.78576 2.67765 3.84764 2.78827C3.86639 2.82202 5.71701 6.22702 6.66951 11.7845C6.69014 11.9101 6.61139 12.0301 6.49139 12.0526C6.47826 12.0583 6.46514 12.0583 6.45201 12.0583Z" fill="#3BC4EE"/>
<path d="M4.24307 12.3282C4.13807 12.3282 4.04619 12.2495 4.02557 12.137C3.64307 9.90758 3.07869 7.7757 2.34557 5.80133C2.30244 5.6832 2.35869 5.5482 2.47119 5.50133C2.58557 5.45445 2.71307 5.51445 2.75619 5.63258C3.49869 7.63508 4.07057 9.79508 4.45869 12.0545C4.48119 12.1801 4.40057 12.3001 4.28057 12.3226C4.26932 12.3263 4.25619 12.3282 4.24307 12.3282Z" fill="#3BC4EE"/>
<path d="M20.0679 12.328C20.0548 12.328 20.0417 12.3262 20.0286 12.3243C19.9086 12.3018 19.8298 12.1818 19.8504 12.0562C20.2386 9.79678 20.8104 7.63678 21.5529 5.63428C21.5979 5.51428 21.7254 5.45615 21.8379 5.50303C21.9523 5.5499 22.0086 5.68303 21.9636 5.80303C21.2323 7.7774 20.6661 9.90928 20.2854 12.1387C20.2648 12.2493 20.1729 12.328 20.0679 12.328Z" fill="#3BC4EE"/>
<path d="M18.1836 12.4781C17.8799 12.465 17.6436 12.1968 17.6568 11.8781C17.9136 5.54434 20.1074 2.04184 20.2011 1.89559C20.3718 1.62934 20.7149 1.55809 20.9661 1.73434C21.2193 1.91059 21.2868 2.27059 21.1161 2.53684C21.0955 2.57059 19.0011 5.93997 18.7574 11.9231C18.7461 12.2418 18.4874 12.4912 18.1836 12.4781Z" fill="#EC6C30"/>
<path d="M6.14631 12.478C6.45006 12.4649 6.68631 12.1968 6.67319 11.878C6.41631 5.54427 4.22256 2.03989 4.12881 1.89364C3.95819 1.62739 3.61506 1.55614 3.36194 1.73239C3.10881 1.90864 3.04131 2.26864 3.21194 2.53489C3.23256 2.56864 5.32694 5.93802 5.57069 11.9211C5.58381 12.2418 5.84069 12.4911 6.14631 12.478Z" fill="#EC6C30"/>
<path d="M22.5262 13.6445C22.4868 13.6445 22.4475 13.6407 22.4062 13.6314C12.6637 11.4751 1.72684 13.6126 1.61622 13.6332C1.31809 13.6932 1.02747 13.5001 0.967467 13.2001C0.907467 12.9001 1.10059 12.6114 1.40059 12.5514C1.51122 12.5289 12.6787 10.3464 22.6443 12.5532C22.9425 12.6189 23.13 12.9132 23.0625 13.2114C23.0361 13.334 22.9685 13.4439 22.8709 13.5227C22.7733 13.6016 22.6517 13.6445 22.5262 13.6445Z" fill="#3BC4EE"/>
<path d="M22.8299 14.8724C21.9787 14.8781 21.9787 14.7356 21.748 13.9762L19.7774 3.70494V3.59994C19.7774 3.21182 19.1418 2.75244 18.6055 2.75244H5.42803C4.89178 2.75244 4.25616 3.21182 4.25616 3.59994V3.70494L2.28741 13.9781C2.15241 14.9212 2.15241 14.9212 0.995533 14.8537C0.388033 14.8181 -0.275716 14.8743 0.119909 13.5618L2.05303 3.48369C2.64928 0.549317 3.86616 0.549316 5.42991 0.549316H18.6074C20.1712 0.549316 21.3243 0.549317 21.9843 3.48369L23.9174 13.5618C24.1668 14.8799 23.8612 14.9006 23.0418 14.8799C22.9668 14.8781 22.8993 14.8724 22.8299 14.8724Z" fill="#EC6C30"/>
</svg>
