<svg width="16" height="18" viewBox="0 0 16 18" fill="none" xmlns="http://www.w3.org/2000/svg">
<path d="M14.875 7.375C15.1985 7.375 15.465 7.621 15.4965 7.936L15.5 8V15.375C15.5001 16.0525 15.2381 16.7038 14.769 17.1927C14.2999 17.6816 13.66 17.9701 12.983 17.998L12.875 18H3.125C2.44747 18.0001 1.79615 17.7381 1.30729 17.269C0.818423 16.7999 0.529876 16.16 0.502 15.483L0.5 15.375V8C0.500517 7.84014 0.562271 7.68655 0.672563 7.57083C0.782854 7.4551 0.933296 7.38604 1.09295 7.37784C1.2526 7.36965 1.40933 7.42294 1.53089 7.52676C1.65245 7.63058 1.72961 7.77703 1.7465 7.936L1.75 8V15.375C1.74998 15.7251 1.88355 16.0621 2.12345 16.3171C2.36335 16.5722 2.69151 16.7261 3.041 16.7475L3.125 16.75H12.875C13.2252 16.75 13.5623 16.6164 13.8173 16.3764C14.0724 16.1364 14.2262 15.8081 14.2475 15.4585L14.25 15.375V8C14.25 7.655 14.53 7.375 14.875 7.375ZM3.545 4.072L7.4345 0.183003C7.54337 0.0741602 7.68858 0.00932721 7.8423 0.000930911C7.99601 -0.00746539 8.14742 0.0411657 8.2675 0.137503L8.318 0.183003L12.207 4.072C12.3212 4.18478 12.3876 4.33715 12.3925 4.49757C12.3974 4.65798 12.3404 4.81413 12.2334 4.93367C12.1263 5.05322 11.9773 5.12699 11.8173 5.13971C11.6574 5.15243 11.4986 5.10312 11.374 5.002L11.3235 4.956L8.5 2.1325V12.25C8.50007 12.4047 8.44274 12.554 8.33911 12.6689C8.23548 12.7838 8.09292 12.8562 7.939 12.872L7.875 12.875C7.72027 12.8751 7.57102 12.8177 7.45612 12.7141C7.34122 12.6105 7.26884 12.4679 7.253 12.314L7.25 12.25V2.1345L4.429 4.956C4.32013 5.06484 4.17492 5.12968 4.0212 5.13807C3.86749 5.14647 3.71608 5.09784 3.596 5.0015L3.545 4.9565C3.43609 4.84754 3.37127 4.7022 3.36296 4.54836C3.35466 4.39453 3.40346 4.24305 3.5 4.123L3.545 4.072L7.4345 0.183003L3.545 4.072Z" fill="white" fill-opacity="0.6"/>
</svg>
