<svg width="24" height="24" viewBox="0 0 24 24" fill="none" xmlns="http://www.w3.org/2000/svg">
<g clip-path="url(#clip0_45_331)">
<path opacity="0.15" d="M11.7647 24.0001C18.2622 24.0001 23.5294 18.7329 23.5294 12.2354C23.5294 5.73794 18.2622 0.470703 11.7647 0.470703C5.26724 0.470703 0 5.73794 0 12.2354C0 18.7329 5.26724 24.0001 11.7647 24.0001Z" fill="black"/>
<path d="M12.2354 23.5294C18.7329 23.5294 24.0001 18.2622 24.0001 11.7647C24.0001 5.26724 18.7329 0 12.2354 0C5.73794 0 0.470703 5.26724 0.470703 11.7647C0.470703 18.2622 5.73794 23.5294 12.2354 23.5294Z" fill="#3B97D3"/>
<path d="M12.2355 2.35303C17.4334 2.35303 21.6473 6.56691 21.6473 11.7648C21.6473 16.9627 17.4334 21.1766 12.2355 21.1766C7.03761 21.1766 2.82373 16.9627 2.82373 11.7648C2.82373 6.56691 7.03761 2.35303 12.2355 2.35303Z" fill="white"/>
<path fill-rule="evenodd" clip-rule="evenodd" d="M12.2351 4.70605C16.1337 4.70605 19.2939 7.86629 19.2939 11.7649C19.2939 15.6632 16.1337 18.8237 12.2351 18.8237C8.3365 18.8237 5.17627 15.6632 5.17627 11.7649C5.17627 7.86629 8.3365 4.70605 12.2351 4.70605Z" fill="#6BC8F2"/>
<path d="M12.2352 7.05859C14.8342 7.05859 16.9411 9.16565 16.9411 11.7645C16.9411 14.3633 14.8342 16.4704 12.2352 16.4704C9.63612 16.4704 7.5293 14.3633 7.5293 11.7645C7.5293 9.16565 9.63612 7.05859 12.2352 7.05859Z" fill="white"/>
<path fill-rule="evenodd" clip-rule="evenodd" d="M12.2353 9.41162C13.5348 9.41162 14.5882 10.465 14.5882 11.7646C14.5882 13.0639 13.5348 14.1175 12.2353 14.1175C10.9357 14.1175 9.88232 13.0639 9.88232 11.7646C9.88232 10.465 10.9357 9.41162 12.2353 9.41162Z" fill="#E64C3C"/>
<path fill-rule="evenodd" clip-rule="evenodd" d="M20.9411 17.4116H17.8823L20.9411 20.4704H24L20.9411 17.4116Z" fill="#F0C419"/>
<path fill-rule="evenodd" clip-rule="evenodd" d="M20.9411 23.5293V20.4704L17.8823 17.4116V20.4704L20.9411 23.5293Z" fill="#F29C1F"/>
<path fill-rule="evenodd" clip-rule="evenodd" d="M20.9411 17.4116H17.8823L20.9411 20.4704H24L20.9411 17.4116Z" fill="#F0C419"/>
<path opacity="0.15" d="M11.8682 11.3973L3.55811 19.7074C3.71754 19.8805 3.88209 20.0488 4.05152 20.2121L12.3673 11.8964C12.401 11.8638 12.4279 11.8249 12.4464 11.7818C12.4649 11.7387 12.4746 11.6924 12.475 11.6456C12.4754 11.5987 12.4665 11.5522 12.4487 11.5088C12.431 11.4655 12.4048 11.4261 12.3717 11.3929C12.3385 11.3598 12.2991 11.3336 12.2557 11.3158C12.2124 11.2981 12.1659 11.2892 12.119 11.2896C12.0722 11.29 12.0258 11.2997 11.9828 11.3182C11.9397 11.3367 11.9008 11.3636 11.8682 11.3973Z" fill="black"/>
<path d="M21.2618 21.1522C21.1714 21.1522 21.0808 21.1179 21.0119 21.0489L11.9855 12.0146C11.9222 11.9478 11.8875 11.8589 11.8887 11.7668C11.89 11.6748 11.9271 11.5868 11.9922 11.5218C12.0574 11.4567 12.1453 11.4197 12.2374 11.4185C12.3294 11.4173 12.4183 11.4521 12.485 11.5155L21.5116 20.5497C21.5609 20.5991 21.5945 20.662 21.608 20.7305C21.6216 20.7989 21.6146 20.8699 21.5878 20.9343C21.5611 20.9988 21.5158 21.0539 21.4578 21.0927C21.3998 21.1315 21.3316 21.1522 21.2618 21.1522Z" fill="#E57E25"/>
</g>
<defs>
<clipPath id="clip0_45_331">
<rect width="24" height="24" fill="white"/>
</clipPath>
</defs>
</svg>
