<svg width="74" height="74" viewBox="0 0 74 74" fill="none" xmlns="http://www.w3.org/2000/svg">
<path fill-rule="evenodd" clip-rule="evenodd" d="M0 37C0 27.187 3.8982 17.7759 10.837 10.837C17.7759 3.8982 27.187 0 37 0C46.813 0 56.2241 3.8982 63.163 10.837C70.1018 17.7759 74 27.187 74 37C74 46.813 70.1018 56.2241 63.163 63.163C56.2241 70.1018 46.813 74 37 74C27.187 74 17.7759 70.1018 10.837 63.163C3.8982 56.2241 0 46.813 0 37H0ZM34.8885 52.836L56.1907 26.2059L52.3427 23.1275L34.1781 45.8257L21.312 35.1056L18.1547 38.8944L34.8885 52.8409V52.836Z" fill="white"/>
</svg>
